<?xml version="1.0" standalone="no"?>
<!DOCTYPE svg PUBLIC "-//W3C//DTD SVG 20010904//EN"
 "http://www.w3.org/TR/2001/REC-SVG-20010904/DTD/svg10.dtd">
<svg version="1.0" xmlns="http://www.w3.org/2000/svg"
 width="300.000000pt" height="136.000000pt" viewBox="0 0 300.000000 136.000000"
 preserveAspectRatio="xMidYMid meet">
<metadata>
Created by potrace 1.10, written by Peter Selinger 2001-2011
</metadata>
<g transform="translate(0.000000,136.000000) scale(0.100000,-0.100000)"
fill="#000000" stroke="none">
<path d="M750 985 c0 -9 59 -35 80 -35 25 0 27 -17 3 -24 -74 -22 -207 -45
-234 -39 -23 4 -35 2 -44 -10 -11 -16 -173 -62 -183 -53 -3 4 2 6 10 6 9 0 21
7 28 15 11 13 -3 15 -114 15 -69 0 -126 -2 -126 -5 0 -9 59 -35 80 -35 11 0
20 -7 20 -15 0 -8 -7 -15 -15 -15 -8 0 -15 -7 -15 -15 0 -20 4 -20 162 19
l137 33 -3 -46 -2 -46 -60 -3 c-47 -2 -64 -8 -81 -27 -13 -13 -23 -31 -23 -40
0 -13 28 -15 215 -15 187 0 215 2 215 15 0 9 -10 27 -22 40 -19 19 -35 25 -83
27 l-59 3 -2 35 c0 19 -4 44 -8 56 -6 19 2 22 126 48 73 15 143 32 156 37 26
10 29 26 5 32 -10 3 -4 5 13 6 18 0 42 10 55 21 l24 19 -127 1 c-71 0 -128 -2
-128 -5z m205 -15 c-25 -11 -122 -11 -155 0 -16 5 10 8 75 8 64 0 93 -2 80 -8z
m-349 -117 c20 -79 -2 -135 -41 -103 -14 11 -16 24 -10 64 3 27 8 53 11 58 11
17 34 7 40 -19z m-231 -13 c-25 -11 -122 -11 -155 0 -16 5 10 8 75 8 64 0 93
-2 80 -8z m-65 -40 c0 -11 -7 -20 -15 -20 -8 0 -15 9 -15 20 0 11 7 20 15 20
8 0 15 -9 15 -20z m85 3 c-27 -7 -57 -11 -65 -9 -8 2 -4 5 10 6 l25 2 -25 7
c-16 5 -3 7 40 7 l65 0 -50 -13z m202 -72 c7 7 17 8 29 1 11 -6 45 -13 77 -17
115 -15 65 -25 -118 -25 -183 0 -235 11 -117 25 32 3 65 10 72 15 8 5 21 5 30
0 11 -6 21 -5 27 1z m193 -61 c0 -6 -75 -10 -205 -10 -130 0 -205 4 -205 10 0
6 75 10 205 10 130 0 205 -4 205 -10z"/>
<path d="M1115 974 c11 -8 37 -17 59 -21 36 -6 38 -7 16 -15 -14 -5 -20 -12
-14 -18 5 -5 75 -23 156 -41 l147 -32 -2 -51 c-1 -28 -6 -54 -12 -58 -5 -4
-35 -8 -66 -8 -50 0 -57 -3 -77 -30 -12 -16 -22 -34 -22 -40 0 -6 74 -10 220
-10 146 0 220 4 220 10 0 6 -10 24 -22 40 -20 27 -27 30 -77 30 -31 0 -60 4
-66 8 -5 4 -11 25 -11 48 l-2 41 142 -33 c166 -39 156 -38 156 -19 0 8 -7 15
-15 15 -8 0 -15 7 -15 15 0 9 9 15 25 15 28 0 75 20 75 32 0 4 -56 8 -125 8
-69 0 -125 -2 -125 -5 0 -3 15 -12 33 -20 46 -20 18 -18 -76 6 -44 11 -86 28
-92 36 -9 12 -21 14 -43 10 -36 -7 -252 39 -252 54 0 5 11 9 24 9 33 0 76 17
76 30 0 6 -47 10 -127 10 -116 -1 -126 -2 -108 -16z m200 -4 c-11 -5 -47 -9
-80 -9 -33 0 -69 4 -80 9 -13 6 15 9 80 9 65 0 93 -3 80 -9z m222 -109 c3 -13
11 -18 21 -14 14 4 14 3 3 -5 -9 -7 -12 -20 -7 -43 7 -42 -21 -67 -54 -49 -23
12 -23 13 -9 80 11 52 36 69 46 31z m353 -21 c-33 -11 -130 -11 -155 0 -13 6
16 8 80 8 65 0 91 -3 75 -8z m-120 -30 c-19 -6 -21 -8 -6 -9 11 -1 17 -3 14
-6 -3 -3 -20 -2 -38 2 -29 5 -31 7 -15 14 11 4 31 7 45 7 l25 0 -25 -8z m-262
-82 c8 -8 15 -8 27 2 10 8 19 9 28 2 6 -5 40 -13 75 -17 117 -13 63 -25 -118
-25 -182 0 -237 12 -115 25 36 4 68 11 71 16 7 12 18 11 32 -3z m212 -58 c0
-6 -75 -10 -206 -10 -134 0 -203 3 -199 10 4 6 83 10 206 10 126 0 199 -4 199
-10z"/>
<path d="M2014 905 c11 -8 35 -18 55 -21 32 -6 33 -8 13 -15 -12 -5 -22 -13
-22 -19 0 -13 13 -13 182 -10 l137 2 -9 -33 c-5 -19 -8 -43 -7 -54 2 -18 -5
-20 -58 -23 -48 -2 -64 -8 -82 -27 -13 -13 -23 -31 -23 -40 0 -13 28 -15 215
-15 187 0 215 2 215 15 0 9 -10 27 -22 40 -19 19 -35 25 -83 27 -53 3 -60 5
-58 23 1 11 -2 35 -7 54 l-9 33 137 -2 c169 -3 182 -3 182 10 0 6 -10 14 -22
19 -19 7 -16 9 19 14 22 4 46 14 53 22 11 13 -2 15 -114 15 -135 0 -152 -8
-68 -34 l47 -15 -117 0 c-68 -1 -119 3 -123 9 -3 6 -17 10 -31 10 -13 0 -24
-4 -24 -10 0 -6 -47 -10 -122 -9 -68 1 -114 3 -103 6 49 11 85 25 85 34 0 5
-56 9 -127 9 -114 -1 -126 -2 -109 -15z m191 -5 c-11 -5 -45 -9 -75 -9 -30 0
-64 4 -75 9 -13 6 13 9 75 9 62 0 88 -3 75 -9z m580 0 c-25 -11 -122 -11 -155
0 -16 5 10 8 75 8 64 0 93 -2 80 -8z m-645 -41 c0 -24 -23 -21 -28 4 -2 10 3
17 12 17 10 0 16 -9 16 -21z m304 -37 c8 -45 6 -56 -8 -70 -38 -38 -63 21 -42
102 12 47 40 29 50 -32z m276 38 c0 -11 -7 -20 -15 -20 -8 0 -15 9 -15 20 0
11 7 20 15 20 8 0 15 -9 15 -20z m-392 -7 c-32 -2 -86 -2 -120 0 -35 2 -9 3
57 3 66 0 94 -1 63 -3z m300 0 c-32 -2 -86 -2 -120 0 -35 2 -9 3 57 3 66 0 94
-1 63 -3z m-201 -122 c7 7 17 8 29 1 11 -6 45 -13 77 -17 115 -15 65 -25 -118
-25 -183 0 -235 11 -117 25 32 3 65 10 72 15 8 5 21 5 30 0 11 -6 21 -5 27 1z
m193 -61 c0 -6 -75 -10 -205 -10 -130 0 -205 4 -205 10 0 6 75 10 205 10 130
0 205 -4 205 -10z"/>
<path d="M0 155 c0 -16 2 -17 140 -21 139 -5 136 -5 116 -20 -12 -8 -47 -11
-111 -8 -75 3 -97 0 -110 -12 -20 -20 -19 -41 3 -52 9 -5 124 -9 256 -8 216 1
240 3 250 19 8 12 8 22 0 35 -9 14 -26 17 -97 17 -81 0 -109 7 -94 22 9 9
1963 11 1978 2 8 -4 8 -12 1 -25 -6 -12 -7 -26 -1 -36 8 -14 30 -17 149 -17
154 -2 191 4 183 24 -8 23 6 38 23 24 10 -8 11 -15 4 -24 -14 -17 29 -25 131
-25 57 0 79 4 79 13 0 8 -19 12 -66 10 -36 0 -68 -4 -71 -7 -11 -11 -21 -6
-26 11 -4 17 -5 17 -6 0 -1 -24 -21 -12 -21 13 0 14 5 18 23 13 29 -7 56 -7
90 0 15 3 27 3 27 -1 0 -9 53 -8 67 1 13 8 23 -1 23 -21 0 -8 -6 -12 -15 -8
-9 3 -15 0 -15 -9 0 -19 17 -19 37 0 13 14 13 18 -1 40 -16 24 -15 24 19 31
20 3 35 12 35 20 0 12 -227 14 -1500 14 -1327 0 -1500 -2 -1500 -15z m2700
-31 c-6 -10 -39 -13 -59 -6 -11 4 -10 7 5 13 24 9 61 5 54 -7z m-322 -28 c10
-6 11 -11 3 -19 -20 -20 -41 -16 -41 8 0 23 13 27 38 11z m42 -3 c0 -14 2 -15
9 -4 6 10 36 14 109 15 88 1 102 -1 106 -16 5 -23 2 -24 -69 -23 -41 1 -59 5
-57 13 1 7 -2 12 -8 12 -5 0 -10 -6 -10 -13 0 -9 -15 -13 -49 -12 -44 0 -48 2
-48 23 0 12 3 22 8 22 5 0 9 -8 9 -17z m-2339 -12 c6 11 9 8 9 -8 0 -18 -6
-23 -24 -23 -33 0 -44 20 -20 37 17 12 19 12 23 -3 2 -14 5 -14 12 -3z m87 -3
c9 -9 12 -9 12 0 0 18 28 14 39 -5 9 -17 10 -17 16 0 10 25 55 23 55 -3 0 -25
-30 -27 -31 -2 -1 16 -2 16 -6 0 -4 -14 -15 -18 -57 -18 -57 0 -67 5 -59 26 6
17 15 18 31 2z m190 -14 c3 -16 1 -17 -7 -4 -10 13 -11 13 -11 0 0 -13 -1 -13
-10 0 -6 10 -10 11 -10 3 0 -7 -4 -13 -10 -13 -14 0 -12 28 3 33 23 8 42 0 45
-19z m172 3 c0 -18 -2 -19 -10 -7 -7 11 -10 11 -10 2 0 -9 -15 -12 -54 -11
-47 2 -54 5 -46 19 6 11 24 16 64 18 52 1 56 -1 56 -21z"/>
</g>
</svg>
